<?xml version="1.0" encoding="utf-8"?>
<!-- Generator: Adobe Illustrator 19.2.1, SVG Export Plug-In . SVG Version: 6.00 Build 0)  -->
<svg version="1.1" id="Layer_1" xmlns="http://www.w3.org/2000/svg" xmlns:xlink="http://www.w3.org/1999/xlink" x="0px" y="0px"
	 viewBox="0 0 190.7 96.2" style="enable-background:new 0 0 190.7 96.2;" xml:space="preserve">
<style type="text/css">
	.st0{fill:#FFFFFF;}
	.st1{fill:url(#SVGID_1_);}
</style>
<g>
	<path class="st0" d="M6.3,83c0-1.6,0.2-3,0.6-4.3s1.1-2.4,1.9-3.4c0.8-0.9,1.9-1.6,3.1-2.2c1.2-0.5,2.7-0.8,4.3-0.8
		c1.7,0,3.1,0.3,4.3,0.8c1.2,0.5,2.3,1.2,3.1,2.2c0.8,0.9,1.5,2.1,1.9,3.4s0.6,2.7,0.6,4.3c0,1.6-0.2,3-0.6,4.2s-1.1,2.4-1.9,3.3
		s-1.9,1.6-3.1,2.1c-1.2,0.5-2.7,0.7-4.3,0.7c-1.6,0-3.1-0.2-4.3-0.7c-1.2-0.5-2.3-1.2-3.1-2.1c-0.8-0.9-1.5-2-1.9-3.3
		S6.3,84.6,6.3,83z M19.7,83c0-1.7-0.3-2.9-0.8-3.8c-0.6-0.9-1.4-1.3-2.5-1.3c-1.1,0-2,0.4-2.5,1.3C13.2,80.1,13,81.3,13,83
		c0,1.6,0.3,2.9,0.8,3.8s1.4,1.3,2.5,1.3c1.1,0,2-0.4,2.5-1.3C19.4,85.9,19.7,84.6,19.7,83z"/>
	<path class="st0" d="M38.6,80.4c0.8,0.2,1.5,0.5,2.1,0.8c0.6,0.3,1.2,0.7,1.6,1.1c0.5,0.5,0.8,1,1.1,1.7c0.3,0.7,0.4,1.5,0.4,2.4
		c0,1-0.2,1.9-0.6,2.8c-0.4,0.9-1,1.6-1.8,2.2c-0.8,0.6-1.8,1.1-2.9,1.5c-1.2,0.4-2.5,0.5-4,0.5c-1.2,0-2.4-0.1-3.5-0.3
		c-1.1-0.2-2.2-0.5-3.4-0.9c0.1-1.8,0.6-3.5,1.4-5.4c0.8,0.4,1.7,0.7,2.6,0.9c0.9,0.2,1.8,0.3,2.7,0.3c0.3,0,0.6,0,1,0
		c0.3,0,0.6-0.1,0.9-0.2c0.3-0.1,0.5-0.2,0.6-0.4s0.3-0.4,0.3-0.6c0-0.3-0.2-0.6-0.5-0.8c-0.3-0.2-0.7-0.3-1.2-0.4l-2.6-0.7
		c-1.4-0.4-2.5-1-3.4-2c-0.9-0.9-1.4-2.2-1.4-3.8c0-1,0.2-1.9,0.6-2.8c0.4-0.8,1-1.5,1.7-2.1c0.8-0.6,1.6-1,2.7-1.3
		c1-0.3,2.2-0.5,3.4-0.5c1,0,2.1,0.1,3.2,0.3s2.3,0.5,3.5,0.9c-0.1,0.8-0.2,1.7-0.5,2.7c-0.3,0.9-0.6,1.8-1,2.5
		c-0.7-0.3-1.5-0.5-2.5-0.8c-1-0.2-1.9-0.3-2.7-0.3c-1.2,0-1.8,0.3-1.8,1c0,0.3,0.1,0.5,0.4,0.7c0.3,0.2,0.6,0.3,1,0.4L38.6,80.4z"
		/>
	<path class="st0" d="M50.4,78.3h-5.7c-0.1-0.5-0.2-1-0.3-1.5c0-0.5-0.1-0.9-0.1-1.3c0-0.4,0-0.8,0.1-1.3c0-0.4,0.1-0.9,0.3-1.4h18
		c0.1,0.5,0.2,1,0.3,1.4c0,0.4,0.1,0.9,0.1,1.3c0,0.4,0,0.8-0.1,1.3c0,0.5-0.1,0.9-0.3,1.5H57v14.5c-0.7,0.1-1.3,0.2-1.8,0.2
		c-0.5,0.1-1,0.1-1.5,0.1s-0.9,0-1.5-0.1c-0.5-0.1-1.1-0.1-1.8-0.2V78.3z"/>
	<path class="st0" d="M70.3,85c0.3,1.1,0.8,1.8,1.5,2.2c0.7,0.4,1.6,0.7,2.8,0.7c0.7,0,1.6-0.1,2.5-0.3c0.9-0.2,1.8-0.5,2.8-0.8
		c0.4,0.7,0.7,1.5,1,2.4c0.3,0.9,0.4,1.9,0.4,2.9c-2.3,0.9-4.7,1.3-7.1,1.3c-1.9,0-3.5-0.3-4.8-0.8c-1.3-0.5-2.4-1.2-3.3-2.2
		c-0.8-0.9-1.5-2-1.9-3.3c-0.4-1.3-0.6-2.7-0.6-4.2c0-1.5,0.2-2.9,0.6-4.2c0.4-1.3,1-2.4,1.9-3.4c0.8-1,1.9-1.7,3.1-2.3
		c1.2-0.6,2.7-0.8,4.3-0.8c1.4,0,2.6,0.2,3.7,0.7s2,1.1,2.7,1.9c0.8,0.8,1.3,1.8,1.7,2.9c0.4,1.2,0.6,2.4,0.6,3.7
		c0,0.7,0,1.3-0.1,1.9c-0.1,0.6-0.1,1-0.2,1.4H70.3z M73.4,77.3c-0.8,0-1.5,0.3-2.1,0.8s-0.9,1.3-1,2.4h6.2
		c-0.1-0.9-0.3-1.7-0.8-2.3C75.1,77.6,74.3,77.3,73.4,77.3z"/>
	<path class="st0" d="M83.8,83c0-1.6,0.2-3,0.6-4.3s1.1-2.4,1.9-3.4c0.8-0.9,1.9-1.6,3.1-2.2c1.2-0.5,2.7-0.8,4.3-0.8
		c1.7,0,3.1,0.3,4.3,0.8c1.2,0.5,2.3,1.2,3.1,2.2c0.8,0.9,1.5,2.1,1.9,3.4s0.6,2.7,0.6,4.3c0,1.6-0.2,3-0.6,4.2s-1.1,2.4-1.9,3.3
		s-1.9,1.6-3.1,2.1c-1.2,0.5-2.7,0.7-4.3,0.7c-1.6,0-3.1-0.2-4.3-0.7c-1.2-0.5-2.3-1.2-3.1-2.1c-0.8-0.9-1.5-2-1.9-3.3
		S83.8,84.6,83.8,83z M97.1,83c0-1.7-0.3-2.9-0.8-3.8c-0.6-0.9-1.4-1.3-2.5-1.3c-1.1,0-2,0.4-2.5,1.3c-0.5,0.9-0.8,2.1-0.8,3.8
		c0,1.6,0.3,2.9,0.8,3.8s1.4,1.3,2.5,1.3c1.1,0,2-0.4,2.5-1.3C96.8,85.9,97.1,84.6,97.1,83z"/>
	<path class="st0" d="M114.4,72.5c1.1,0,2.1,0.1,3.1,0.3s2,0.5,2.9,1c0.7-0.3,1.5-0.6,2.4-0.9c0.9-0.3,1.9-0.4,3.1-0.4
		c1,0,2,0.1,3.1,0.3c1.1,0.2,2,0.6,2.9,1.2c0.9,0.6,1.6,1.5,2.1,2.7c0.6,1.2,0.8,2.7,0.8,4.6v11.6c-0.7,0.1-1.3,0.2-1.8,0.3
		c-0.5,0-1,0.1-1.4,0.1c-0.4,0-0.9,0-1.5-0.1c-0.5,0-1.2-0.1-1.8-0.3V82c0-1.4-0.2-2.4-0.7-2.9c-0.5-0.6-1.2-0.9-2.3-0.9
		c-0.4,0-0.7,0-1.1,0.1c-0.3,0.1-0.6,0.1-0.7,0.2c0.2,0.9,0.3,1.9,0.3,3.1v11.3c-0.7,0.1-1.3,0.2-1.8,0.3c-0.5,0-1,0.1-1.4,0.1
		c-0.4,0-0.9,0-1.5-0.1c-0.5,0-1.2-0.1-1.8-0.3V82c0-1.4-0.2-2.4-0.7-2.9c-0.4-0.6-1.2-0.9-2.2-0.9c-0.3,0-0.6,0-0.9,0.1
		s-0.5,0.1-0.6,0.2v14.5c-0.7,0.1-1.3,0.2-1.8,0.3c-0.5,0-1,0.1-1.4,0.1c-0.4,0-0.9,0-1.5-0.1c-0.5,0-1.2-0.1-1.8-0.3v-19
		c0.9-0.3,2-0.6,3.3-0.9C110.9,72.6,112.5,72.5,114.4,72.5z"/>
	<path class="st0" d="M143.9,85c0.3,1.1,0.8,1.8,1.5,2.2c0.7,0.4,1.6,0.7,2.8,0.7c0.7,0,1.6-0.1,2.5-0.3c0.9-0.2,1.8-0.5,2.8-0.8
		c0.4,0.7,0.7,1.5,1,2.4c0.3,0.9,0.4,1.9,0.4,2.9c-2.3,0.9-4.7,1.3-7.1,1.3c-1.9,0-3.5-0.3-4.8-0.8c-1.3-0.5-2.4-1.2-3.3-2.2
		c-0.8-0.9-1.5-2-1.9-3.3c-0.4-1.3-0.6-2.7-0.6-4.2c0-1.5,0.2-2.9,0.6-4.2c0.4-1.3,1-2.4,1.9-3.4c0.8-1,1.9-1.7,3.1-2.3
		c1.2-0.6,2.7-0.8,4.3-0.8c1.4,0,2.6,0.2,3.7,0.7s2,1.1,2.7,1.9c0.8,0.8,1.3,1.8,1.7,2.9c0.4,1.2,0.6,2.4,0.6,3.7
		c0,0.7,0,1.3-0.1,1.9c-0.1,0.6-0.1,1-0.2,1.4H143.9z M147,77.3c-0.8,0-1.5,0.3-2.1,0.8s-0.9,1.3-1,2.4h6.2
		c-0.1-0.9-0.3-1.7-0.8-2.3C148.6,77.6,147.9,77.3,147,77.3z"/>
	<path class="st0" d="M158.3,73c1.2-0.2,2.5-0.3,3.8-0.4c1.3-0.1,2.5-0.2,3.7-0.2c3.1,0,5.5,0.6,7,1.8c1.6,1.2,2.3,2.8,2.3,4.9
		c0,0.8-0.1,1.5-0.3,2.1s-0.4,1.1-0.7,1.5c-0.3,0.4-0.5,0.8-0.8,1c-0.3,0.3-0.5,0.5-0.7,0.6l4.4,8.5c-0.5,0.1-1.1,0.2-1.7,0.2
		c-0.6,0.1-1.2,0.1-1.8,0.1c-0.7,0-1.4,0-2.1-0.1c-0.7-0.1-1.2-0.1-1.7-0.2l-4.3-9.2l0.5-0.3c0.9-0.5,1.5-1.1,1.9-1.6
		c0.3-0.6,0.5-1.2,0.5-1.9c0-0.7-0.2-1.2-0.6-1.6s-1-0.6-1.9-0.6c-0.5,0-0.9,0-1.1,0.1v15.2c-0.7,0.1-1.3,0.2-1.8,0.3
		c-0.5,0-1,0.1-1.4,0.1c-0.4,0-0.9,0-1.4-0.1c-0.5,0-1.1-0.1-1.8-0.3V73z"/>
</g>
<g>
	<path class="st0" d="M184,72.9c2.6,0,4.6,2.1,4.6,4.6c0,2.6-2.1,4.6-4.6,4.6c-2.6,0-4.6-2.1-4.6-4.6C179.4,75,181.5,72.9,184,72.9z
		 M184,81.2c2,0,3.6-1.6,3.6-3.6c0-2-1.6-3.6-3.6-3.6c-2,0-3.6,1.6-3.6,3.6C180.4,79.5,182,81.2,184,81.2z M184.1,75.1
		c0.5,0,1,0.2,1.4,0.5c0.1,0.1,0.1,0.3,0,0.4l-0.4,0.5c-0.1,0.1-0.2,0.1-0.3,0c-0.2-0.2-0.5-0.2-0.7-0.2c-0.7,0-1.2,0.6-1.2,1.2
		c0,0.7,0.5,1.2,1.2,1.2c0.2,0,0.5-0.1,0.7-0.2c0.1-0.1,0.2-0.1,0.3,0l0.5,0.5c0.1,0.1,0.1,0.3,0,0.4c-0.4,0.4-0.9,0.5-1.5,0.5
		c-1.3,0-2.4-1.1-2.4-2.4C181.7,76.2,182.8,75.1,184.1,75.1z"/>
</g>
<linearGradient id="SVGID_1_" gradientUnits="userSpaceOnUse" x1="148.3084" y1="31.4742" x2="-26.5275" y2="31.4742">
	<stop  offset="0" style="stop-color:#F36E23"/>
	<stop  offset="1" style="stop-color:#FDB913"/>
</linearGradient>
<path class="st1" d="M126.6,35.8c-2.6-8.8-5.7-18.7-14.9-19.3c0,0-0.1,0-0.1,0c-11.2-0.7-15,12.1-17.4,20.6
	c-0.3,1.1-1.5,4.6-1.9,4.6c-0.6,0-1.1-3.5-1.3-4.8c-1.3-8.8-3.3-22.1-14.5-22.8c-7.8-0.5-11.9,5.8-15.4,13c-1.3-6.1-4.5-11.8-9.2-16
	c-5.9-5.3-13.6-7.9-21.6-7.3C17,4.8,5.9,15,3.8,28c-1.3,8,0.6,15.9,5.5,22.2c3,3.9,7.1,7,11.7,8.9c0,0,0,0,0.1,0
	c4.2,1,7.4-5.3,1.5-7.8c-0.2-0.1-0.4-0.3-0.6-0.4C15.1,47,10.8,39.7,11.4,31.4c0.8-11.6,10.8-20.4,22.4-19.6c0,0,0.1,0,0.1,0
	c11.6,0.8,20.4,10.9,19.6,22.5c-0.3,3.9-1.6,7.4-3.7,10.4c0,0,0,0.1,0,0.1c-2.5,4.1,2.8,9.7,7.6,4.6c3.8-4.9,6.4-10.6,8.7-15.5
	c3.9-8.6,6.2-12.6,9.8-12.4c0,0,0,0,0,0c4.4,0.3,6,5.8,7.6,16.4c0.9,6.1,1.8,12.3,8.1,12.7c0,0,0,0,0.1,0c6.2,0.4,8-5.7,9.7-11.5
	c3-10.3,5.4-15.5,9.8-15.2c0,0,0,0,0,0c3.5,0.2,5.5,5.5,8.2,14.1C121.5,44.9,128.3,41.6,126.6,35.8z"/>
</svg>
