<svg width="191" height="97" viewBox="0 0 191 97" fill="none" xmlns="http://www.w3.org/2000/svg">
<path d="M6.29999 83C6.29999 81.4 6.49999 80 6.89999 78.7C7.29999 77.4 7.99999 76.3 8.79999 75.3C9.59999 74.4 10.7 73.7 11.9 73.1C13.1 72.6 14.6 72.3 16.2 72.3C17.9 72.3 19.3 72.6 20.5 73.1C21.7 73.6 22.8 74.3 23.6 75.3C24.4 76.2 25.1 77.4 25.5 78.7C25.9 80 26.1 81.4 26.1 83C26.1 84.6 25.9 86 25.5 87.2C25.1 88.4 24.4 89.6 23.6 90.5C22.8 91.4 21.7 92.1 20.5 92.6C19.3 93.1 17.8 93.3 16.2 93.3C14.6 93.3 13.1 93.1 11.9 92.6C10.7 92.1 9.59999 91.4 8.79999 90.5C7.99999 89.6 7.29999 88.5 6.89999 87.2C6.49999 85.9 6.29999 84.6 6.29999 83ZM19.7 83C19.7 81.3 19.4 80.1 18.9 79.2C18.3 78.3 17.5 77.9 16.4 77.9C15.3 77.9 14.4 78.3 13.9 79.2C13.2 80.1 13 81.3 13 83C13 84.6 13.3 85.9 13.8 86.8C14.3 87.7 15.2 88.1 16.3 88.1C17.4 88.1 18.3 87.7 18.8 86.8C19.4 85.9 19.7 84.6 19.7 83Z" fill="#3A3C48"/>
<path d="M38.6 80.4C39.4 80.6 40.1 80.9 40.7 81.2C41.3 81.5 41.9 81.9 42.3 82.3C42.8 82.8 43.1 83.3 43.4 84C43.7 84.7 43.8 85.5 43.8 86.4C43.8 87.4 43.6 88.3 43.2 89.2C42.8 90.1 42.2 90.8 41.4 91.4C40.6 92 39.6 92.5 38.5 92.9C37.3 93.3 36 93.4 34.5 93.4C33.3 93.4 32.1 93.3 31 93.1C29.9 92.9 28.8 92.6 27.6 92.2C27.7 90.4 28.2 88.7 29 86.8C29.8 87.2 30.7 87.5 31.6 87.7C32.5 87.9 33.4 88 34.3 88C34.6 88 34.9 88 35.3 88C35.6 88 35.9 87.9 36.2 87.8C36.5 87.7 36.7 87.6 36.8 87.4C36.9 87.2 37.1 87 37.1 86.8C37.1 86.5 36.9 86.2 36.6 86C36.3 85.8 35.9 85.7 35.4 85.6L32.8 84.9C31.4 84.5 30.3 83.9 29.4 82.9C28.5 82 28 80.7 28 79.1C28 78.1 28.2 77.2 28.6 76.3C29 75.5 29.6 74.8 30.3 74.2C31.1 73.6 31.9 73.2 33 72.9C34 72.6 35.2 72.4 36.4 72.4C37.4 72.4 38.5 72.5 39.6 72.7C40.7 72.9 41.9 73.2 43.1 73.6C43 74.4 42.9 75.3 42.6 76.3C42.3 77.2 42 78.1 41.6 78.8C40.9 78.5 40.1 78.3 39.1 78C38.1 77.8 37.2 77.7 36.4 77.7C35.2 77.7 34.6 78 34.6 78.7C34.6 79 34.7 79.2 35 79.4C35.3 79.6 35.6 79.7 36 79.8L38.6 80.4Z" fill="#3A3C48"/>
<path d="M50.4 78.3H44.7C44.6 77.8 44.5 77.3 44.4 76.8C44.4 76.3 44.3 75.9 44.3 75.5C44.3 75.1 44.3 74.7 44.4 74.2C44.4 73.8 44.5 73.3 44.7 72.8H62.7C62.8 73.3 62.9 73.8 63 74.2C63 74.6 63.1 75.1 63.1 75.5C63.1 75.9 63.1 76.3 63 76.8C63 77.3 62.9 77.7 62.7 78.3H57V92.8C56.3 92.9 55.7 93 55.2 93C54.7 93.1 54.2 93.1 53.7 93.1C53.2 93.1 52.8 93.1 52.2 93C51.7 92.9 51.1 92.9 50.4 92.8V78.3Z" fill="#3A3C48"/>
<path d="M70.3 85C70.6 86.1 71.1 86.8 71.8 87.2C72.5 87.6 73.4 87.9 74.6 87.9C75.3 87.9 76.2 87.8 77.1 87.6C78 87.4 78.9 87.1 79.9 86.8C80.3 87.5 80.6 88.3 80.9 89.2C81.2 90.1 81.3 91.1 81.3 92.1C79 93 76.6 93.4 74.2 93.4C72.3 93.4 70.7 93.1 69.4 92.6C68.1 92.1 67 91.4 66.1 90.4C65.3 89.5 64.6 88.4 64.2 87.1C63.8 85.8 63.6 84.4 63.6 82.9C63.6 81.4 63.8 80 64.2 78.7C64.6 77.4 65.2 76.3 66.1 75.3C66.9 74.3 68 73.6 69.2 73C70.4 72.4 71.9 72.2 73.5 72.2C74.9 72.2 76.1 72.4 77.2 72.9C78.3 73.4 79.2 74 79.9 74.8C80.7 75.6 81.2 76.6 81.6 77.7C82 78.9 82.2 80.1 82.2 81.4C82.2 82.1 82.2 82.7 82.1 83.3C82 83.9 82 84.3 81.9 84.7H70.3V85ZM73.4 77.3C72.6 77.3 71.9 77.6 71.3 78.1C70.7 78.6 70.4 79.4 70.3 80.5H76.5C76.4 79.6 76.2 78.8 75.7 78.2C75.1 77.6 74.3 77.3 73.4 77.3Z" fill="#3A3C48"/>
<path d="M83.8 83C83.8 81.4 84 80 84.4 78.7C84.8 77.4 85.5 76.3 86.3 75.3C87.1 74.4 88.2 73.7 89.4 73.1C90.6 72.6 92.1 72.3 93.7 72.3C95.4 72.3 96.8 72.6 98 73.1C99.2 73.6 100.3 74.3 101.1 75.3C101.9 76.2 102.6 77.4 103 78.7C103.4 80 103.6 81.4 103.6 83C103.6 84.6 103.4 86 103 87.2C102.6 88.4 101.9 89.6 101.1 90.5C100.3 91.4 99.2 92.1 98 92.6C96.8 93.1 95.3 93.3 93.7 93.3C92.1 93.3 90.6 93.1 89.4 92.6C88.2 92.1 87.1 91.4 86.3 90.5C85.5 89.6 84.8 88.5 84.4 87.2C84 85.9 83.8 84.6 83.8 83ZM97.1 83C97.1 81.3 96.8 80.1 96.3 79.2C95.7 78.3 94.9 77.9 93.8 77.9C92.7 77.9 91.8 78.3 91.3 79.2C90.8 80.1 90.5 81.3 90.5 83C90.5 84.6 90.8 85.9 91.3 86.8C91.8 87.7 92.7 88.1 93.8 88.1C94.9 88.1 95.8 87.7 96.3 86.8C96.8 85.9 97.1 84.6 97.1 83Z" fill="#3A3C48"/>
<path d="M114.4 72.5C115.5 72.5 116.5 72.6 117.5 72.8C118.5 73 119.5 73.3 120.4 73.8C121.1 73.5 121.9 73.2 122.8 72.9C123.7 72.6 124.7 72.5 125.9 72.5C126.9 72.5 127.9 72.6 129 72.8C130.1 73 131 73.4 131.9 74C132.8 74.6 133.5 75.5 134 76.7C134.6 77.9 134.8 79.4 134.8 81.3V92.9C134.1 93 133.5 93.1 133 93.2C132.5 93.2 132 93.3 131.6 93.3C131.2 93.3 130.7 93.3 130.1 93.2C129.6 93.2 128.9 93.1 128.3 92.9V82C128.3 80.6 128.1 79.6 127.6 79.1C127.1 78.5 126.4 78.2 125.3 78.2C124.9 78.2 124.6 78.2 124.2 78.3C123.9 78.4 123.6 78.4 123.5 78.5C123.7 79.4 123.8 80.4 123.8 81.6V92.9C123.1 93 122.5 93.1 122 93.2C121.5 93.2 121 93.3 120.6 93.3C120.2 93.3 119.7 93.3 119.1 93.2C118.6 93.2 117.9 93.1 117.3 92.9V82C117.3 80.6 117.1 79.6 116.6 79.1C116.2 78.5 115.4 78.2 114.4 78.2C114.1 78.2 113.8 78.2 113.5 78.3C113.2 78.4 113 78.4 112.9 78.5V93C112.2 93.1 111.6 93.2 111.1 93.3C110.6 93.3 110.1 93.4 109.7 93.4C109.3 93.4 108.8 93.4 108.2 93.3C107.7 93.3 107 93.2 106.4 93V74C107.3 73.7 108.4 73.4 109.7 73.1C110.9 72.6 112.5 72.5 114.4 72.5Z" fill="#3A3C48"/>
<path d="M143.9 85C144.2 86.1 144.7 86.8 145.4 87.2C146.1 87.6 147 87.9 148.2 87.9C148.9 87.9 149.8 87.8 150.7 87.6C151.6 87.4 152.5 87.1 153.5 86.8C153.9 87.5 154.2 88.3 154.5 89.2C154.8 90.1 154.9 91.1 154.9 92.1C152.6 93 150.2 93.4 147.8 93.4C145.9 93.4 144.3 93.1 143 92.6C141.7 92.1 140.6 91.4 139.7 90.4C138.9 89.5 138.2 88.4 137.8 87.1C137.4 85.8 137.2 84.4 137.2 82.9C137.2 81.4 137.4 80 137.8 78.7C138.2 77.4 138.8 76.3 139.7 75.3C140.5 74.3 141.6 73.6 142.8 73C144 72.4 145.5 72.2 147.1 72.2C148.5 72.2 149.7 72.4 150.8 72.9C151.9 73.4 152.8 74 153.5 74.8C154.3 75.6 154.8 76.6 155.2 77.7C155.6 78.9 155.8 80.1 155.8 81.4C155.8 82.1 155.8 82.7 155.7 83.3C155.6 83.9 155.6 84.3 155.5 84.7H143.9V85ZM147 77.3C146.2 77.3 145.5 77.6 144.9 78.1C144.3 78.6 144 79.4 143.9 80.5H150.1C150 79.6 149.8 78.8 149.3 78.2C148.6 77.6 147.9 77.3 147 77.3Z" fill="#3A3C48"/>
<path d="M158.3 73C159.5 72.8 160.8 72.7 162.1 72.6C163.4 72.5 164.6 72.4 165.8 72.4C168.9 72.4 171.3 73 172.8 74.2C174.4 75.4 175.1 77 175.1 79.1C175.1 79.9 175 80.6 174.8 81.2C174.6 81.8 174.4 82.3 174.1 82.7C173.8 83.1 173.6 83.5 173.3 83.7C173 84 172.8 84.2 172.6 84.3L177 92.8C176.5 92.9 175.9 93 175.3 93C174.7 93.1 174.1 93.1 173.5 93.1C172.8 93.1 172.1 93.1 171.4 93C170.7 92.9 170.2 92.9 169.7 92.8L165.4 83.6L165.9 83.3C166.8 82.8 167.4 82.2 167.8 81.7C168.1 81.1 168.3 80.5 168.3 79.8C168.3 79.1 168.1 78.6 167.7 78.2C167.3 77.8 166.7 77.6 165.8 77.6C165.3 77.6 164.9 77.6 164.7 77.7V92.9C164 93 163.4 93.1 162.9 93.2C162.4 93.2 161.9 93.3 161.5 93.3C161.1 93.3 160.6 93.3 160.1 93.2C159.6 93.2 159 93.1 158.3 92.9V73Z" fill="#3A3C48"/>
<path d="M184 72.9C186.6 72.9 188.6 75 188.6 77.5C188.6 80.1 186.5 82.1 184 82.1C181.4 82.1 179.4 80 179.4 77.5C179.4 75 181.5 72.9 184 72.9ZM184 81.2C186 81.2 187.6 79.6 187.6 77.6C187.6 75.6 186 74 184 74C182 74 180.4 75.6 180.4 77.6C180.4 79.5 182 81.2 184 81.2ZM184.1 75.1C184.6 75.1 185.1 75.3 185.5 75.6C185.6 75.7 185.6 75.9 185.5 76L185.1 76.5C185 76.6 184.9 76.6 184.8 76.5C184.6 76.3 184.3 76.3 184.1 76.3C183.4 76.3 182.9 76.9 182.9 77.5C182.9 78.2 183.4 78.7 184.1 78.7C184.3 78.7 184.6 78.6 184.8 78.5C184.9 78.4 185 78.4 185.1 78.5L185.6 79C185.7 79.1 185.7 79.3 185.6 79.4C185.2 79.8 184.7 79.9 184.1 79.9C182.8 79.9 181.7 78.8 181.7 77.5C181.7 76.2 182.8 75.1 184.1 75.1Z" fill="#3A3C48"/>
<path d="M126.6 35.8C124 27 120.9 17.1 111.7 16.5H111.6C100.4 15.8 96.6 28.6 94.2 37.1C93.9 38.2 92.7 41.7 92.3 41.7C91.7 41.7 91.2 38.2 91 36.9C89.7 28.1 87.7 14.8 76.5 14.1C68.7 13.6 64.6 19.9 61.1 27.1C59.8 21 56.6 15.3 51.9 11.1C46 5.8 38.3 3.2 30.3 3.8C17 4.8 5.90001 15 3.80001 28C2.50001 36 4.40001 43.9 9.30001 50.2C12.3 54.1 16.4 57.2 21 59.1C21 59.1 21 59.1 21.1 59.1C25.3 60.1 28.5 53.8 22.6 51.3C22.4 51.2 22.2 51 22 50.9C15.1 47 10.8 39.7 11.4 31.4C12.2 19.8 22.2 11 33.8 11.8H33.9C45.5 12.6 54.3 22.7 53.5 34.3C53.2 38.2 51.9 41.7 49.8 44.7V44.8C47.3 48.9 52.6 54.5 57.4 49.4C61.2 44.5 63.8 38.8 66.1 33.9C70 25.3 72.3 21.3 75.9 21.5C80.3 21.8 81.9 27.3 83.5 37.9C84.4 44 85.3 50.2 91.6 50.6C91.6 50.6 91.6 50.6 91.7 50.6C97.9 51 99.7 44.9 101.4 39.1C104.4 28.8 106.8 23.6 111.2 23.9C114.7 24.1 116.7 29.4 119.4 38C121.5 44.9 128.3 41.6 126.6 35.8Z" fill="url(#paint0_linear_1_2)"/>
<defs>
<linearGradient id="paint0_linear_1_2" x1="148.308" y1="31.4742" x2="-26.5275" y2="31.4742" gradientUnits="userSpaceOnUse">
<stop stop-color="#F36E23"/>
<stop offset="1" stop-color="#FDB913"/>
</linearGradient>
</defs>
</svg>
